<svg width="24" height="24" viewBox="0 0 24 24" fill="none" xmlns="http://www.w3.org/2000/svg">
<path d="M22 12C22 17.5228 17.5228 22 12 22C6.47715 22 2 17.5228 2 12C2 6.47715 6.47715 2 12 2C17.5228 2 22 6.47715 22 12Z" fill="#737684"/>
<path fill-rule="evenodd" clip-rule="evenodd" d="M7.19135 7.19225C7.50377 6.87983 8.0103 6.87983 8.32272 7.19225L16.808 15.6775C17.1204 15.99 17.1204 16.4965 16.808 16.8089C16.4956 17.1213 15.989 17.1213 15.6766 16.8089L7.19135 8.32362C6.87893 8.0112 6.87893 7.50467 7.19135 7.19225Z" fill="white"/>
<path fill-rule="evenodd" clip-rule="evenodd" d="M7.19135 16.808C6.87893 16.4956 6.87893 15.989 7.19135 15.6766L15.6766 7.19135C15.989 6.87893 16.4956 6.87893 16.808 7.19135C17.1204 7.50377 17.1204 8.0103 16.808 8.32272L8.32272 16.808C8.0103 17.1204 7.50377 17.1204 7.19135 16.808Z" fill="white"/>
</svg>
